                                                                        S      1
,,,13HLED_5mm_Green,22HAutodesk Inventor 2023,7Hunknown,32,38,7,99,15,, G      1
1.,2,2HMM,1,0.08,15H20230421.212042,0.01,10000.,5HAdmin,,11,0,15H2019080G      2
4.000000;                                                               G      3
     186       1                                                00000000D      1
     186            -185       1       0                               0D      2
     514       2                                                00010000D      3
     514                       2       1                               0D      4
     510       4                                                00010000D      5
     510            -185       1       1                               0D      6
     510       5                                                00010000D      7
     510            -185       1       1                               0D      8
     510       6                                                00010000D      9
     510            -185       1       1                               0D     10
     510       7                                                00010000D     11
     510            -185       1       1                               0D     12
     510       8                                                00010000D     13
     510            -185       1       1                               0D     14
     510       9                                                00010000D     15
     510            -185       1       1                               0D     16
     510      10                                                00010000D     17
     510            -185       1       1                               0D     18
     510      11                                                00010000D     19
     510            -185       1       1                               0D     20
     510      12                                                00010000D     21
     510            -185       1       1                               0D     22
     510      13                                                00010000D     23
     510            -185       1       1                               0D     24
     510      14                                                00010000D     25
     510            -187       1       1                               0D     26
     510      15                                                00010000D     27
     510            -187       1       1                               0D     28
     510      16                                                00010000D     29
     510            -187       1       1                               0D     30
     510      17                                                00010000D     31
     510            -187       1       1                               0D     32
     510      18                                                00010000D     33
     510            -187       1       1                               0D     34
     510      19                                                00010000D     35
     510            -187       1       1                               0D     36
     508      20                                                00010000D     37
     508                       1       1                               0D     38
     508      21                                                00010000D     39
     508                       1       1                               0D     40
     508      22                                                00010000D     41
     508                       1       1                               0D     42
     508      23                                                00010000D     43
     508                       1       1                               0D     44
     508      24                                                00010000D     45
     508                       1       1                               0D     46
     508      25                                                00010000D     47
     508                       1       1                               0D     48
     508      26                                                00010000D     49
     508                       1       1                               0D     50
     508      27                                                00010000D     51
     508                       1       1                               0D     52
     508      28                                                00010000D     53
     508                       1       1                               0D     54
     508      29                                                00010000D     55
     508                       1       1                               0D     56
     508      30                                                00010000D     57
     508                       2       1                               0D     58
     508      32                                                00010000D     59
     508                       1       1                               0D     60
     508      33                                                00010000D     61
     508                       2       1                               0D     62
     508      35                                                00010000D     63
     508                       1       1                               0D     64
     508      36                                                00010000D     65
     508                       1       1                               0D     66
     508      37                                                00010000D     67
     508                       1       1                               0D     68
     508      38                                                00010000D     69
     508                       1       1                               0D     70
     508      39                                                00010000D     71
     508                       2       1                               0D     72
     126      41                                                00010000D     73
     126       0               3       0                               0D     74
     126      44                                                00010000D     75
     126       0               2       0                               0D     76
     126      46                                                00010000D     77
     126       0               2       0                               0D     78
     126      48                                                00010000D     79
     126       0               2       0                               0D     80
     126      50                                                00010000D     81
     126       0               2       0                               0D     82
     126      52                                                00010000D     83
     126       0               2       0                               0D     84
     126      54                                                00010000D     85
     126       0               2       0                               0D     86
     126      56                                                00010000D     87
     126       0               3       0                               0D     88
     126      59                                                00010000D     89
     126       0               2       0                               0D     90
     126      61                                                00010000D     91
     126       0               2       0                               0D     92
     126      63                                                00010000D     93
     126       0               2       0                               0D     94
     126      65                                                00010000D     95
     126       0               2       0                               0D     96
     126      67                                                00010000D     97
     126       0               3       0                               0D     98
     126      70                                                00010000D     99
     126       0               2       0                               0D    100
     126      72                                                00010000D    101
     126       0               2       0                               0D    102
     126      74                                                00010000D    103
     126       0               2       0                               0D    104
     126      76                                                00010000D    105
     126       0               2       0                               0D    106
     126      78                                                00010000D    107
     126       0               2       0                               0D    108
     126      80                                                00010000D    109
     126       0               2       0                               0D    110
     126      82                                                00010000D    111
     126       0               3       0                               0D    112
     126      85                                                00010000D    113
     126       0               2       0                               0D    114
     126      87                                                00010000D    115
     126       0               2       0                               0D    116
     126      89                                                00010000D    117
     126       0               2       0                               0D    118
     126      91                                                00010000D    119
     126       0               2       0                               0D    120
     126      93                                                00010000D    121
     126       0               2       0                               0D    122
     126      95                                                00010000D    123
     126       0               5       0                               0D    124
     126     100                                                00010000D    125
     126       0               7       0                               0D    126
     126     107                                                00010000D    127
     126       0               4       0                               0D    128
     126     111                                                00010000D    129
     126       0              12       0                               0D    130
     126     123                                                00010000D    131
     126       0               2       0                               0D    132
     126     125                                                00010000D    133
     126       0              12       0                               0D    134
     126     137                                                00010000D    135
     126       0               2       0                               0D    136
     126     139                                                00010000D    137
     126       0               3       0                               0D    138
     126     142                                                00010000D    139
     126       0               5       0                               0D    140
     126     147                                                00010000D    141
     126       0               4       0                               0D    142
     126     151                                                00010000D    143
     126       0               8       0                               0D    144
     126     159                                                00010000D    145
     126       0               2       0                               0D    146
     128     161                                                00010000D    147
     128       0    -185       3       0                               0D    148
     128     164                                                00010000D    149
     128       0    -185       3       0                               0D    150
     128     167                                                00010000D    151
     128       0    -185       3       0                               0D    152
     128     170                                                00010000D    153
     128       0    -185       3       0                               0D    154
     128     173                                                00010000D    155
     128       0    -185       3       0                               0D    156
     128     176                                                00010000D    157
     128       0    -185       3       0                               0D    158
     128     179                                                00010000D    159
     128       0    -185       3       0                               0D    160
     128     182                                                00010000D    161
     128       0    -185       3       0                               0D    162
     128     185                                                00010000D    163
     128       0    -185       3       0                               0D    164
     128     188                                                00010000D    165
     128       0    -185       3       0                               0D    166
     128     191                                                00010000D    167
     128       0    -187       7       0                               0D    168
     128     198                                                00010000D    169
     128       0    -187      19       0                               0D    170
     128     217                                                00010000D    171
     128       0    -187       5       0                               0D    172
     128     222                                                00010000D    173
     128       0    -187       7       0                               0D    174
     128     229                                                00010000D    175
     128       0    -187      19       0                               0D    176
     128     248                                                00010000D    177
     128       0    -187      11       0                               0D    178
     502     259                                                00010000D    179
     502                       7       1                               0D    180
     504     266                                                00010001D    181
     504                      11       1                               0D    182
     406     277                                                00000000D    183
     406                       1      15                               0D    184
     314     278                                                00000200D    185
     314                       1       0                               0D    186
     314     279                                                00000200D    187
     314                       1       0                               0D    188
186,3,1,0,0,1,183;                                                     1P      1
514,16,5,1,7,1,9,1,11,1,13,1,15,1,17,1,19,1,21,1,23,1,25,1,27,1,       3P      2
29,1,31,1,33,1,35,1;                                                   3P      3
510,147,1,1,37;                                                        5P      4
510,149,1,1,39;                                                        7P      5
510,151,1,1,41;                                                        9P      6
510,153,1,1,43;                                                       11P      7
510,155,1,1,45;                                                       13P      8
510,157,1,1,47;                                                       15P      9
510,159,1,1,49;                                                       17P     10
510,161,1,1,51;                                                       19P     11
510,163,1,1,53;                                                       21P     12
510,165,1,1,55;                                                       23P     13
510,167,1,1,57;                                                       25P     14
510,169,1,1,59;                                                       27P     15
510,171,1,1,61;                                                       29P     16
510,173,3,1,63,65,67;                                                 31P     17
510,175,1,1,69;                                                       33P     18
510,177,1,1,71;                                                       35P     19
508,4,0,181,1,0,0,0,181,2,1,0,0,181,3,0,0,0,181,4,0,0;                37P     20
508,4,0,181,5,0,0,0,181,4,1,0,0,181,6,0,0,0,181,7,0,0;                39P     21
508,4,0,181,8,0,0,0,181,7,1,0,0,181,9,0,0,0,181,10,0,0;               41P     22
508,4,0,181,11,0,0,0,181,10,1,0,0,181,12,0,0,0,181,2,0,0;             43P     23
508,4,0,181,12,1,0,0,181,9,1,0,0,181,6,1,0,0,181,3,1,0;               45P     24
508,4,0,181,13,0,0,0,181,14,1,0,0,181,15,0,0,0,181,16,0,0;            47P     25
508,4,0,181,17,0,0,0,181,16,1,0,0,181,18,0,0,0,181,19,0,0;            49P     26
508,4,0,181,20,0,0,0,181,19,1,0,0,181,21,0,0,0,181,22,0,0;            51P     27
508,4,0,181,23,0,0,0,181,22,1,0,0,181,24,0,0,0,181,14,0,0;            53P     28
508,4,0,181,24,1,0,0,181,21,1,0,0,181,18,1,0,0,181,15,1,0;            55P     29
508,5,0,181,25,1,0,0,181,26,1,0,0,181,27,1,0,0,181,28,1,0,0,181,      57P     30
29,1,0;                                                               57P     31
508,4,0,181,29,0,0,0,181,30,1,0,0,181,31,0,0,0,181,32,0,0;            59P     32
508,5,0,181,25,0,0,0,181,32,1,0,0,181,33,0,0,0,181,30,0,0,0,181,      61P     33
28,0,0;                                                               61P     34
508,2,0,181,33,1,0,0,181,31,1,0;                                      63P     35
508,4,0,181,1,1,0,0,181,5,1,0,0,181,8,1,0,0,181,11,1,0;               65P     36
508,4,0,181,13,1,0,0,181,17,1,0,0,181,20,1,0,0,181,23,1,0;            67P     37
508,4,0,181,34,1,0,0,181,35,0,0,0,181,35,1,0,0,181,36,1,0;            69P     38
508,6,0,181,34,0,0,0,181,37,1,0,0,181,26,0,0,0,181,27,0,0,0,181,      71P     39
37,0,0,0,181,36,0,0;                                                  71P     40
126,1,1,0,0,1,0,-0.0982022441007695,-0.0982022441007695,              73P     41
-0.0482022441007695,-0.0482022441007695,1.,1.,0.25,-1.,1.52,          73P     42
0.25,-1.,1.02,-0.0982022441007695,-0.0482022441007695,0.,0.,0.;       73P     43
126,1,1,0,0,1,0,0.,0.,0.5,0.5,1.,1.,0.25,-1.,1.52,0.25,-6.,1.52,      75P     44
0.,0.5,0.,0.,0.;                                                      75P     45
126,1,1,0,0,1,0,-0.05,-0.05,0.,0.,1.,1.,0.25,-6.,1.02,0.25,-6.,       77P     46
1.52,-0.05,0.,0.,0.,0.;                                               77P     47
126,1,1,0,0,1,0,0.,0.,0.5,0.5,1.,1.,0.25,-1.,1.02,0.25,-6.,1.02,      79P     48
0.,0.5,0.,0.,0.;                                                      79P     49
126,1,1,0,0,1,0,-0.0375,-0.0375,0.0125,0.0125,1.,1.,0.25,-1.,         81P     50
1.02,-0.25,-1.,1.02,-0.0375,0.0125,0.,0.,0.;                          81P     51
126,1,1,0,0,1,0,-0.05,-0.05,0.,0.,1.,1.,-0.25,-6.,1.02,0.25,-6.,      83P     52
1.02,-0.05,0.,0.,0.,0.;                                               83P     53
126,1,1,0,0,1,0,0.,0.,0.5,0.5,1.,1.,-0.25,-1.,1.02,-0.25,-6.,         85P     54
1.02,0.,0.5,0.,0.,0.;                                                 85P     55
126,1,1,0,0,1,0,0.0232022441007695,0.0232022441007695,                87P     56
0.0732022441007695,0.0732022441007695,1.,1.,-0.25,-1.,1.02,           87P     57
-0.25,-1.,1.52,0.0232022441007695,0.0732022441007695,0.,0.,0.;        87P     58
126,1,1,0,0,1,0,-0.05,-0.05,0.,0.,1.,1.,-0.25,-6.,1.52,-0.25,         89P     59
-6.,1.02,-0.05,0.,0.,0.,0.;                                           89P     60
126,1,1,0,0,1,0,0.,0.,0.5,0.5,1.,1.,-0.25,-1.,1.52,-0.25,-6.,         91P     61
1.52,0.,0.5,0.,0.,0.;                                                 91P     62
126,1,1,0,0,1,0,-0.0375,-0.0375,0.0125,0.0125,1.,1.,-0.25,-1.,        93P     63
1.52,0.25,-1.,1.52,-0.0375,0.0125,0.,0.,0.;                           93P     64
126,1,1,0,0,1,0,-0.05,-0.05,0.,0.,1.,1.,0.25,-6.,1.52,-0.25,-6.,      95P     65
1.52,-0.05,0.,0.,0.,0.;                                               95P     66
126,1,1,0,0,1,0,-0.103797755899231,-0.103797755899231,                97P     67
-0.0537977558992305,-0.0537977558992305,1.,1.,-0.25,-1.,-1.52,        97P     68
-0.25,-1.,-1.02,-0.103797755899231,-0.0537977558992305,0.,0.,0.;      97P     69
126,1,1,0,0,1,0,0.,0.,0.5,0.5,1.,1.,-0.25,-1.,-1.52,-0.25,-6.,        99P     70
-1.52,0.,0.5,0.,0.,0.;                                                99P     71
126,1,1,0,0,1,0,0.,0.,0.05,0.05,1.,1.,-0.25,-6.,-1.02,-0.25,-6.,     101P     72
-1.52,0.,0.05,0.,0.,0.;                                              101P     73
126,1,1,0,0,1,0,0.,0.,0.5,0.5,1.,1.,-0.25,-1.,-1.02,-0.25,-6.,       103P     74
-1.02,0.,0.5,0.,0.,0.;                                               103P     75
126,1,1,0,0,1,0,-0.0375,-0.0375,0.0125,0.0125,1.,1.,-0.25,-1.,       105P     76
-1.02,0.25,-1.,-1.02,-0.0375,0.0125,0.,0.,0.;                        105P     77
126,1,1,0,0,1,0,0.,0.,0.05,0.05,1.,1.,0.25,-6.,-1.02,-0.25,-6.,      107P     78
-1.02,0.,0.05,0.,0.,0.;                                              107P     79
126,1,1,0,0,1,0,0.,0.,0.5,0.5,1.,1.,0.25,-1.,-1.02,0.25,-6.,         109P     80
-1.02,0.,0.5,0.,0.,0.;                                               109P     81
126,1,1,0,0,1,0,0.0287977558992305,0.0287977558992305,               111P     82
0.0787977558992305,0.0787977558992305,1.,1.,0.25,-1.,-1.02,0.25,     111P     83
-1.,-1.52,0.0287977558992305,0.0787977558992305,0.,0.,0.;            111P     84
126,1,1,0,0,1,0,0.,0.,0.05,0.05,1.,1.,0.25,-6.,-1.52,0.25,-6.,       113P     85
-1.02,0.,0.05,0.,0.,0.;                                              113P     86
126,1,1,0,0,1,0,0.,0.,0.5,0.5,1.,1.,0.25,-1.,-1.52,0.25,-6.,         115P     87
-1.52,0.,0.5,0.,0.,0.;                                               115P     88
126,1,1,0,0,1,0,-0.0375,-0.0375,0.0125,0.0125,1.,1.,0.25,-1.,        117P     89
-1.52,-0.25,-1.,-1.52,-0.0375,0.0125,0.,0.,0.;                       117P     90
126,1,1,0,0,1,0,0.,0.,0.05,0.05,1.,1.,-0.25,-6.,-1.52,0.25,-6.,      119P     91
-1.52,0.,0.05,0.,0.,0.;                                              119P     92
126,1,1,0,0,1,0,0.,0.,0.16583123951777,0.16583123951777,1.,1.,       121P     93
-1.6583123951777,0.,2.5,0.,0.,2.5,0.,0.16583123951777,0.,0.,0.;      121P     94
126,2,2,0,0,0,0,-4.71238898038469,-4.71238898038469,                 123P     95
-4.71238898038469,-3.14159265358979,-3.14159265358979,               123P     96
-3.14159265358979,1.,0.707106781186548,1.,-4.59242549680257D-16,     123P     97
0.,2.5,-2.5,0.,2.5,-2.5,0.,-3.06161699786838D-16,                    123P     98
-4.71238898038469,-3.14159265358979,0.,0.,0.;                        123P     99
126,6,2,0,0,0,0,-3.14159265358979,-3.14159265358979,                 125P    100
-3.14159265358979,-1.5707963267949,-1.5707963267949,0.,0.,           125P    101
1.5707963267949,1.5707963267949,1.5707963267949,1.,                  125P    102
0.707106781186548,1.,0.707106781186548,1.,0.707106781186548,1.,      125P    103
-2.5,0.,-3.06161699786838D-16,-2.5,0.,-2.5,1.53080849893419D-16,     125P    104
0.,-2.5,2.5,0.,-2.5,2.5,0.,0.,2.5,0.,2.5,1.53080849893419D-16,       125P    105
0.,2.5,-3.14159265358979,1.5707963267949,0.,0.,0.;                   125P    106
126,1,1,0,0,1,0,0.16583123951777,0.16583123951777,                   127P    107
0.33166247903554,0.33166247903554,1.,1.,0.,0.,2.5,                   127P    108
1.6583123951777,0.,2.5,0.16583123951777,0.33166247903554,0.,0.,      127P    109
0.;                                                                  127P    110
126,8,2,0,0,0,0,-1.97022156667549,-1.97022156667549,                 129P    111
-1.97022156667549,-0.69226801160917,-0.69226801160917,               129P    112
0.585685543457151,0.585685543457151,1.86363909852347,                129P    113
1.86363909852347,3.14159265358979,3.14159265358979,                  129P    114
3.14159265358979,1.,0.802706401679596,1.,0.802706401679597,1.,       129P    115
0.802706401679596,1.,0.802706401679596,1.,1.6583123951777,0.,        129P    116
2.5,3.51569887306876,0.,1.26794919243112,2.87228132326901,0.,        129P    117
-0.866025403784439,2.22886377346927,0.,-3.,2.77555756156289D-16,     129P    118
0.,-3.,-2.22886377346927,0.,-3.,-2.87228132326901,0.,                129P    119
-0.866025403784439,-3.51569887306876,0.,1.26794919243112,            129P    120
-1.6583123951777,0.,2.5,-1.97022156667549,3.14159265358979,0.,       129P    121
0.,0.;                                                               129P    122
126,1,1,0,0,1,0,0.,0.,0.1,0.1,1.,1.,1.6583123951777,0.,2.5,          131P    123
1.6583123951777,-1.,2.5,0.,0.1,0.,0.,0.;                             131P    124
126,8,2,0,0,0,0,-3.14159265358979,-3.14159265358979,                 133P    125
-3.14159265358979,-1.86363909852347,-1.86363909852347,               133P    126
-0.585685543457151,-0.585685543457151,0.69226801160917,              133P    127
0.69226801160917,1.97022156667549,1.97022156667549,                  133P    128
1.97022156667549,1.,0.802706401679596,1.,0.802706401679596,1.,       133P    129
0.802706401679597,1.,0.802706401679596,1.,-1.6583123951777,-1.,      133P    130
2.5,-3.51569887306876,-1.,1.26794919243112,-2.87228132326901,        133P    131
-1.,-0.866025403784439,-2.22886377346927,-1.,-3.,                    133P    132
2.77555756156289D-16,-1.,-3.,2.22886377346927,-1.,-3.,               133P    133
2.87228132326901,-1.,-0.866025403784439,3.51569887306876,-1.,        133P    134
1.26794919243112,1.6583123951777,-1.,2.5,-3.14159265358979,          133P    135
1.97022156667549,0.,0.,0.;                                           133P    136
126,1,1,0,0,1,0,0.,0.,0.1,0.1,1.,1.,-1.6583123951777,0.,2.5,         135P    137
-1.6583123951777,-1.,2.5,0.,0.1,0.,0.,0.;                            135P    138
126,1,1,0,0,1,0,-0.33166247903554,-0.33166247903554,0.,0.,1.,1.,     137P    139
1.6583123951777,-1.,2.5,-1.6583123951777,-1.,2.5,                    137P    140
-0.33166247903554,0.,0.,0.,0.;                                       137P    141
126,2,2,0,0,0,0,-3.14159265358979,-3.14159265358979,                 139P    142
-3.14159265358979,-1.5707963267949,-1.5707963267949,                 139P    143
-1.5707963267949,1.,0.707106781186548,1.,-2.5,5.5,                   139P    144
3.06161699786838D-16,-2.5,5.5,2.5,1.53080849893419D-16,5.5,2.5,      139P    145
-3.14159265358979,-1.5707963267949,0.,0.,0.;                         139P    146
126,2,2,0,0,0,0,-1.5707963267949,-1.5707963267949,                   141P    147
-1.5707963267949,0.,0.,0.,1.,0.707106781186547,1.,0.,8.,             141P    148
1.53080849893419D-16,0.,8.,2.5,0.,5.5,2.5,-1.5707963267949,0.,       141P    149
0.,0.,0.;                                                            141P    150
126,6,2,0,0,0,0,-1.5707963267949,-1.5707963267949,                   143P    151
-1.5707963267949,0.,0.,1.5707963267949,1.5707963267949,              143P    152
3.14159265358979,3.14159265358979,3.14159265358979,1.,               143P    153
0.707106781186548,1.,0.707106781186548,1.,0.707106781186548,1.,      143P    154
1.53080849893419D-16,5.5,2.5,2.5,5.5,2.5,2.5,5.5,0.,2.5,5.5,         143P    155
-2.5,1.53080849893419D-16,5.5,-2.5,-2.5,5.5,-2.5,-2.5,5.5,           143P    156
-3.06161699786838D-16,-1.5707963267949,3.14159265358979,0.,0.,       143P    157
0.;                                                                  143P    158
126,1,1,0,0,1,0,-2.2,-2.2,0.,0.,1.,1.,-2.5,5.5,0.,-2.5,0.,0.,        145P    159
-2.2,0.,0.,0.,0.;                                                    145P    160
128,1,1,1,1,0,0,1,0,0,-0.001,-0.001,0.051,0.051,-0.001,-0.001,       147P    161
0.501,0.501,1.,1.,1.,1.,0.25,-0.99,1.01,0.25,-0.99,1.53,0.25,        147P    162
-6.01,1.01,0.25,-6.01,1.53,-0.001,0.051,-0.001,0.501;                147P    163
128,1,1,1,1,0,0,1,0,0,-0.001,-0.001,0.051,0.051,-0.001,-0.001,       149P    164
0.501,0.501,1.,1.,1.,1.,-0.26,-0.99,1.02,0.26,-0.99,1.02,-0.26,      149P    165
-6.01,1.02,0.26,-6.01,1.02,-0.001,0.051,-0.001,0.501;                149P    166
128,1,1,1,1,0,0,1,0,0,-0.001,-0.001,0.051,0.051,-0.001,-0.001,       151P    167
0.501,0.501,1.,1.,1.,1.,-0.25,-0.99,1.53,-0.25,-0.99,1.01,-0.25,     151P    168
-6.01,1.53,-0.25,-6.01,1.01,-0.001,0.051,-0.001,0.501;               151P    169
128,1,1,1,1,0,0,1,0,0,-0.001,-0.001,0.051,0.051,-0.001,-0.001,       153P    170
0.501,0.501,1.,1.,1.,1.,0.26,-0.99,1.52,-0.26,-0.99,1.52,0.26,       153P    171
-6.01,1.52,-0.26,-6.01,1.52,-0.001,0.051,-0.001,0.501;               153P    172
128,1,1,1,1,0,0,1,0,0,-0.026,-0.026,0.026,0.026,-0.026,-0.026,       155P    173
0.026,0.026,1.,1.,1.,1.,-0.26,-6.,1.53,-0.26,-6.,1.01,0.26,-6.,      155P    174
1.53,0.26,-6.,1.01,-0.026,0.026,-0.026,0.026;                        155P    175
128,1,1,1,1,0,0,1,0,0,-0.001,-0.001,0.051,0.051,-0.001,-0.001,       157P    176
0.501,0.501,1.,1.,1.,1.,-0.25,-0.99,-1.01,-0.25,-0.99,-1.53,         157P    177
-0.25,-6.01,-1.01,-0.25,-6.01,-1.53,-0.001,0.051,-0.001,0.501;       157P    178
128,1,1,1,1,0,0,1,0,0,-0.001,-0.001,0.051,0.051,-0.001,-0.001,       159P    179
0.501,0.501,1.,1.,1.,1.,0.26,-0.99,-1.02,-0.26,-0.99,-1.02,0.26,     159P    180
-6.01,-1.02,-0.26,-6.01,-1.02,-0.001,0.051,-0.001,0.501;             159P    181
128,1,1,1,1,0,0,1,0,0,-0.001,-0.001,0.051,0.051,-0.001,-0.001,       161P    182
0.501,0.501,1.,1.,1.,1.,0.25,-0.99,-1.53,0.25,-0.99,-1.01,0.25,      161P    183
-6.01,-1.53,0.25,-6.01,-1.01,-0.001,0.051,-0.001,0.501;              161P    184
128,1,1,1,1,0,0,1,0,0,-0.001,-0.001,0.051,0.051,-0.001,-0.001,       163P    185
0.501,0.501,1.,1.,1.,1.,-0.26,-0.99,-1.52,0.26,-0.99,-1.52,          163P    186
-0.26,-6.01,-1.52,0.26,-6.01,-1.52,-0.001,0.051,-0.001,0.501;        163P    187
128,1,1,1,1,0,0,1,0,0,-0.026,-0.026,0.026,0.026,-0.026,-0.026,       165P    188
0.026,0.026,1.,1.,1.,1.,-0.26,-6.,-1.01,-0.26,-6.,-1.53,0.26,        165P    189
-6.,-1.01,0.26,-6.,-1.53,-0.026,0.026,-0.026,0.026;                  165P    190
128,1,1,1,1,0,0,1,0,0,-0.245404488201539,-0.245404488201539,         167P    191
0.306595511798461,0.306595511798461,-0.352569887306876,              167P    192
-0.352569887306876,0.352569887306876,0.352569887306876,1.,1.,1.,     167P    193
1.,-3.52569887306876,0.,-3.01,-3.52569887306876,0.,2.51,             167P    194
3.52569887306876,0.,-3.01,3.52569887306876,0.,2.51,                  167P    195
-0.245404488201539,0.306595511798461,-0.352569887306876,             167P    196
0.352569887306876;                                                   167P    197
128,1,8,1,2,0,0,0,0,0,0.,0.,0.333333333333333,0.333333333333333,     169P    198
-3.14159265358979,-3.14159265358979,-3.14159265358979,               169P    199
-1.86363909852347,-1.86363909852347,-0.585685543457151,              169P    200
-0.585685543457151,0.69226801160917,0.69226801160917,                169P    201
1.97022156667549,1.97022156667549,1.97022156667549,1.,1.,            169P    202
0.802706401679597,0.802706401679597,1.,1.,0.802706401679597,         169P    203
0.802706401679597,1.,1.,0.802706401679597,0.802706401679597,1.,      169P    204
1.,0.802706401679597,0.802706401679597,1.,1.,-1.6583123951777,       169P    205
-1.,2.5,-1.6583123951777,0.,2.5,-3.51569887306876,-1.,               169P    206
1.26794919243112,-3.51569887306876,0.,1.26794919243112,              169P    207
-2.87228132326901,-1.,-0.866025403784439,-2.87228132326901,0.,       169P    208
-0.866025403784439,-2.22886377346927,-1.,-3.,-2.22886377346927,      169P    209
0.,-3.,2.77555756156289D-16,-1.,-3.,2.77555756156289D-16,0.,-3.,     169P    210
2.22886377346927,-1.,-3.,2.22886377346927,0.,-3.,                    169P    211
2.87228132326901,-1.,-0.866025403784439,2.87228132326901,0.,         169P    212
-0.866025403784439,3.51569887306876,-1.,1.26794919243112,            169P    213
3.51569887306876,0.,1.26794919243112,1.6583123951777,-1.,2.5,        169P    214
1.6583123951777,0.,2.5,0.,0.333333333333333,-3.14159265358979,       169P    215
1.97022156667549;                                                    169P    216
128,1,1,1,1,0,0,1,0,0,-0.001,-0.001,0.33266247903554,                171P    217
0.33266247903554,-0.001,-0.001,0.101,0.101,1.,1.,1.,1.,              171P    218
1.6683123951777,0.01,2.5,-1.6683123951777,0.01,2.5,                  171P    219
1.6683123951777,-1.01,2.5,-1.6683123951777,-1.01,2.5,-0.001,         171P    220
0.33266247903554,-0.001,0.101;                                       171P    221
128,1,1,1,1,0,0,1,0,0,-0.245404488201539,-0.245404488201539,         173P    222
0.306595511798461,0.306595511798461,-0.352569887306876,              173P    223
-0.352569887306876,0.352569887306876,0.352569887306876,1.,1.,1.,     173P    224
1.,-3.52569887306876,-1.,2.51,-3.52569887306876,-1.,-3.01,           173P    225
3.52569887306876,-1.,2.51,3.52569887306876,-1.,-3.01,                173P    226
-0.245404488201539,0.306595511798461,-0.352569887306876,             173P    227
0.352569887306876;                                                   173P    228
128,2,8,2,2,0,1,0,0,1,0.,0.,0.,1.5707963267949,1.5707963267949,      175P    229
1.5707963267949,-3.14159265358979,-3.14159265358979,                 175P    230
-3.14159265358979,-1.5707963267949,-1.5707963267949,0.,0.,           175P    231
1.5707963267949,1.5707963267949,3.14159265358979,                    175P    232
3.14159265358979,3.14159265358979,1.,0.707106781186547,1.,           175P    233
0.707106781186548,0.5,0.707106781186548,1.,0.707106781186547,1.,     175P    234
0.707106781186548,0.5,0.707106781186548,1.,0.707106781186547,1.,     175P    235
0.707106781186548,0.5,0.707106781186548,1.,0.707106781186547,1.,     175P    236
0.707106781186548,0.5,0.707106781186548,1.,0.707106781186547,1.,     175P    237
0.,8.,1.53080849893419D-16,0.,8.,2.5,0.,5.5,2.5,                     175P    238
1.53080849893419D-16,8.,1.53080849893419D-16,2.5,8.,2.5,2.5,5.5,     175P    239
2.5,1.53080849893419D-16,8.,0.,2.5,8.,0.,2.5,5.5,0.,                 175P    240
1.53080849893419D-16,8.,-1.53080849893419D-16,2.5,8.,-2.5,2.5,       175P    241
5.5,-2.5,0.,8.,-1.53080849893419D-16,0.,8.,-2.5,0.,5.5,-2.5,         175P    242
-1.53080849893419D-16,8.,-1.53080849893419D-16,-2.5,8.,-2.5,         175P    243
-2.5,5.5,-2.5,-1.53080849893419D-16,8.,0.,-2.5,8.,0.,-2.5,5.5,       175P    244
0.,-1.53080849893419D-16,8.,1.53080849893419D-16,-2.5,8.,2.5,        175P    245
-2.5,5.5,2.5,0.,8.,1.53080849893419D-16,0.,8.,2.5,0.,5.5,2.5,0.,     175P    246
1.5707963267949,-3.14159265358979,3.14159265358979;                  175P    247
128,1,8,1,2,0,1,0,0,1,0.,0.,2.2,2.2,-3.14159265358979,               177P    248
-3.14159265358979,-3.14159265358979,-1.5707963267949,                177P    249
-1.5707963267949,0.,0.,1.5707963267949,1.5707963267949,              177P    250
3.14159265358979,3.14159265358979,3.14159265358979,1.,1.,            177P    251
0.707106781186548,0.707106781186548,1.,1.,0.707106781186548,         177P    252
0.707106781186548,1.,1.,0.707106781186548,0.707106781186548,1.,      177P    253
1.,0.707106781186548,0.707106781186548,1.,1.,-2.5,5.5,0.,-2.5,       177P    254
0.,0.,-2.5,5.5,2.5,-2.5,0.,2.5,0.,5.5,2.5,0.,0.,2.5,2.5,5.5,2.5,     177P    255
2.5,0.,2.5,2.5,5.5,0.,2.5,0.,0.,2.5,5.5,-2.5,2.5,0.,-2.5,0.,5.5,     177P    256
-2.5,0.,0.,-2.5,-2.5,5.5,-2.5,-2.5,0.,-2.5,-2.5,5.5,0.,-2.5,0.,      177P    257
0.,0.,2.2,-3.14159265358979,3.14159265358979;                        177P    258
502,25,0.25,-1.,1.52,0.25,-1.,1.02,0.25,-6.,1.52,0.25,-6.,1.02,      179P    259
-0.25,-1.,1.02,-0.25,-6.,1.02,-0.25,-1.,1.52,-0.25,-6.,1.52,         179P    260
-0.25,-1.,-1.52,-0.25,-1.,-1.02,-0.25,-6.,-1.52,-0.25,-6.,-1.02,     179P    261
0.25,-1.,-1.02,0.25,-6.,-1.02,0.25,-1.,-1.52,0.25,-6.,-1.52,         179P    262
-1.6583123951777,0.,2.5,0.,0.,2.5,-2.5,0.,0.,1.6583123951777,0.,     179P    263
2.5,1.6583123951777,-1.,2.5,-1.6583123951777,-1.,2.5,-2.5,5.5,       179P    264
3.06161699786838D-16,0.,5.5,2.5,0.,8.,1.53080849893419D-16;          179P    265
504,37,73,179,1,179,2,75,179,1,179,3,77,179,4,179,3,79,179,2,        181P    266
179,4,81,179,2,179,5,83,179,6,179,4,85,179,5,179,6,87,179,5,179,     181P    267
7,89,179,8,179,6,91,179,7,179,8,93,179,7,179,1,95,179,3,179,8,       181P    268
97,179,9,179,10,99,179,9,179,11,101,179,12,179,11,103,179,10,        181P    269
179,12,105,179,10,179,13,107,179,14,179,12,109,179,13,179,14,        181P    270
111,179,13,179,15,113,179,16,179,14,115,179,15,179,16,117,179,       181P    271
15,179,9,119,179,11,179,16,121,179,17,179,18,123,179,18,179,19,      181P    272
125,179,19,179,18,127,179,18,179,20,129,179,20,179,17,131,179,       181P    273
20,179,21,133,179,22,179,21,135,179,17,179,22,137,179,21,179,22,     181P    274
139,179,23,179,24,141,179,25,179,24,143,179,24,179,23,145,179,       181P    275
23,179,19;                                                           181P    276
406,1,15HVolumenkörper1;                                            183P    277
314,74.9019607843137,74.9019607843137,74.9019607843137,;             185P    278
314,49.0196078431373,100.,0.,;                                       187P    279
S      1G      3D    188P    279                                        T      1
