G04*
G04 #@! TF.GenerationSoftware,Altium Limited,Altium Designer,23.4.1 (23)*
G04*
G04 Layer_Physical_Order=2*
G04 Layer_Color=16711680*
%FSLAX25Y25*%
%MOIN*%
G70*
G04*
G04 #@! TF.SameCoordinates,2A0E947D-B6A8-43C5-BC2B-383818F6DAB7*
G04*
G04*
G04 #@! TF.FilePolarity,Positive*
G04*
G01*
G75*
%ADD52C,0.02000*%
%ADD53O,0.09843X0.19685*%
%ADD54O,0.08858X0.17717*%
%ADD55O,0.17717X0.08858*%
%ADD56C,0.05512*%
%ADD57C,0.05200*%
%ADD58R,0.05200X0.05200*%
%ADD59R,0.07323X0.07323*%
%ADD60C,0.07323*%
%ADD61R,0.05347X0.05347*%
%ADD62C,0.05347*%
%ADD63R,0.05200X0.05200*%
%ADD64C,0.04528*%
%ADD65C,0.07400*%
%ADD66R,0.07400X0.07400*%
%ADD67R,0.07284X0.07284*%
%ADD68C,0.07402*%
%ADD69C,0.07284*%
%ADD70C,0.05976*%
%ADD71R,0.05976X0.05976*%
%ADD72R,0.04449X0.04449*%
%ADD73C,0.04449*%
%ADD74C,0.04055*%
%ADD75R,0.04331X0.04331*%
%ADD76C,0.04331*%
%ADD77R,0.05512X0.05512*%
%ADD78C,0.04795*%
%ADD79R,0.04795X0.04795*%
%ADD80C,0.06496*%
%ADD81R,0.06496X0.06496*%
%ADD82R,0.06496X0.06496*%
%ADD83C,0.05937*%
%ADD84R,0.05937X0.05937*%
%ADD85R,0.06260X0.06260*%
%ADD86C,0.06260*%
D52*
X237000Y221500D02*
X249500D01*
X16000Y109000D02*
X78370D01*
X86870Y100500D01*
X115842Y25842D02*
X201000D01*
X80000Y183079D02*
X80039Y183039D01*
X100961D01*
X101000Y183000D01*
X234063Y214500D02*
X234675Y215112D01*
Y219175D01*
X237000Y221500D01*
X284500Y179500D02*
X289500Y174500D01*
X264000Y179500D02*
X284500D01*
X289500Y133000D02*
Y174500D01*
X249500Y221500D02*
X261000Y210000D01*
Y182500D02*
X264000Y179500D01*
X261000Y182500D02*
Y210000D01*
X110000Y213000D02*
X110500Y213500D01*
X136563D01*
X137063Y214000D01*
X49000Y202658D02*
X60000Y191657D01*
Y184500D02*
Y191657D01*
X158394Y199500D02*
X167894Y190000D01*
X118000Y205500D02*
X124000Y199500D01*
X158394D01*
X56000Y205500D02*
X118000D01*
X49000Y212500D02*
X56000Y205500D01*
X162000Y182000D02*
X179106D01*
X187106Y190000D01*
X151079Y192921D02*
X162000Y182000D01*
X80000Y192921D02*
X151079D01*
X220000Y138000D02*
Y149500D01*
X210000Y159500D02*
X220000Y149500D01*
X210000Y159500D02*
Y169181D01*
X20000Y184500D02*
X28500Y176000D01*
X243181D02*
X250000Y169181D01*
X28500Y176000D02*
X243181D01*
X7500Y162500D02*
Y186500D01*
Y162500D02*
X20000Y150000D01*
X98672Y158828D02*
X118000Y139500D01*
X93672Y158828D02*
X98672D01*
X93000Y159500D02*
X93672Y158828D01*
X118000Y129500D02*
X126500D01*
X133000Y136000D01*
Y159500D01*
X73500D02*
X93000D01*
X284500Y128000D02*
X289500Y133000D01*
X267000Y132500D02*
X282500D01*
X286172Y136172D01*
Y148754D01*
X274000Y128000D02*
X284500D01*
X280000Y154926D02*
X286172Y148754D01*
X280000Y154926D02*
Y169181D01*
X264000Y122000D02*
Y129500D01*
X267000Y132500D01*
X271000Y120000D02*
Y125000D01*
X274000Y128000D01*
X265500Y114500D02*
X271000Y120000D01*
X254500Y108000D02*
X261000Y114500D01*
X265500D01*
X261000Y103000D02*
X269000Y111000D01*
X261000Y90500D02*
Y103000D01*
X269000Y111000D02*
X280000D01*
X217500Y94500D02*
X231000Y108000D01*
X254500D01*
X217500Y85000D02*
Y94500D01*
X225000Y89000D02*
X228500Y92500D01*
X225000Y77500D02*
Y89000D01*
X228500Y92500D02*
X242500D01*
X210866Y78134D02*
Y110000D01*
Y78134D02*
X214500Y74500D01*
X222000D02*
X225000Y77500D01*
X214500Y74500D02*
X222000D01*
X242500Y92500D02*
X247000Y88000D01*
X239500Y9500D02*
X247000Y17000D01*
Y88000D01*
X209000Y9500D02*
X239500D01*
X198063Y20437D02*
X209000Y9500D01*
X175500Y20437D02*
X198063D01*
X231744Y84744D02*
X237244D01*
X190000Y115500D02*
X201180Y126680D01*
X208680D01*
X220000Y138000D01*
X190000Y106500D02*
Y115500D01*
Y106500D02*
X206000Y90500D01*
Y71500D02*
Y90500D01*
Y71500D02*
X211500Y66000D01*
X227500D01*
X230500Y69000D01*
Y83500D01*
X231744Y84744D01*
X237244D02*
X237500Y85000D01*
X180500Y107500D02*
Y118500D01*
X200000Y138000D01*
X167500Y94500D02*
X180500Y107500D01*
X167500Y69000D02*
Y94500D01*
X175839Y66661D02*
X176500Y66000D01*
X169839Y66661D02*
X175839D01*
X167500Y69000D02*
X169839Y66661D01*
X176500Y56000D02*
X186500Y46000D01*
X199500D01*
X190500Y80000D02*
Y84828D01*
X191672Y86000D02*
X199500D01*
X190500Y84828D02*
X191672Y86000D01*
X176500Y66000D02*
X190500Y80000D01*
X199500Y69000D02*
Y86000D01*
Y69000D02*
X208500Y60000D01*
Y39937D02*
X231437Y17000D01*
X208500Y39937D02*
Y60000D01*
X237500Y65000D02*
Y85000D01*
X217500Y45000D02*
X237500Y65000D01*
X164634Y105500D02*
X169134Y110000D01*
X122000Y105500D02*
X164634D01*
X118000Y109500D02*
X122000Y105500D01*
X118000Y109500D02*
Y119500D01*
X262000Y8000D02*
X272000Y18000D01*
X261000Y50500D02*
X272000Y39500D01*
Y18000D02*
Y39500D01*
X110000Y20000D02*
X115842Y25842D01*
X103626Y12000D02*
Y18828D01*
X104798Y20000D01*
X110000D01*
X111500Y12000D02*
X119937Y20437D01*
X175500D01*
X96108Y25242D02*
X105242D01*
X122500Y42500D01*
X135500Y73500D02*
X136000Y74000D01*
X129500Y73500D02*
X135500D01*
X121776Y65776D02*
X129500Y73500D01*
X82146Y68543D02*
X84913Y65776D01*
X121776D01*
X82146Y75776D02*
X86870Y80500D01*
X82146Y68543D02*
Y75776D01*
X146500Y8106D02*
X147268Y7339D01*
X20000Y150000D02*
X87472D01*
X107972Y129500D02*
X118000D01*
X87472Y150000D02*
X107972Y129500D01*
X78000Y7134D02*
X96108Y25242D01*
X86870Y70500D02*
X99874Y83504D01*
Y131000D01*
D53*
X51122Y26500D02*
D03*
D54*
X27500D02*
D03*
D55*
X39311Y7996D02*
D03*
D56*
X110000Y213000D02*
D03*
X70000D02*
D03*
X136000Y74000D02*
D03*
Y114000D02*
D03*
X237500Y45000D02*
D03*
Y85000D02*
D03*
X252500Y185500D02*
D03*
X212500D02*
D03*
X133000Y159500D02*
D03*
X93000D02*
D03*
X101000Y183000D02*
D03*
X141000D02*
D03*
X261000Y50500D02*
D03*
Y90500D02*
D03*
X20000Y184500D02*
D03*
X60000D02*
D03*
X224000Y122000D02*
D03*
X264000D02*
D03*
X217500Y45000D02*
D03*
Y85000D02*
D03*
X152500Y114000D02*
D03*
Y74000D02*
D03*
X41500Y96000D02*
D03*
Y56000D02*
D03*
X62000Y71157D02*
D03*
Y81000D02*
D03*
X16000Y119000D02*
D03*
X73500Y159500D02*
D03*
Y119500D02*
D03*
X199500Y46000D02*
D03*
Y86000D02*
D03*
X7500Y146500D02*
D03*
Y186500D02*
D03*
X56500Y159500D02*
D03*
Y119500D02*
D03*
X40000D02*
D03*
Y159500D02*
D03*
D57*
X234063Y214500D02*
D03*
X12563Y212500D02*
D03*
X175500Y12563D02*
D03*
X272500Y199437D02*
D03*
X185000Y214500D02*
D03*
X137063Y214000D02*
D03*
X103626Y12000D02*
D03*
D58*
X241937Y214500D02*
D03*
X20437Y212500D02*
D03*
X192874Y214500D02*
D03*
X144937Y214000D02*
D03*
X111500Y12000D02*
D03*
D59*
X176500Y56000D02*
D03*
D60*
Y66000D02*
D03*
Y76000D02*
D03*
D61*
X280000Y169181D02*
D03*
D62*
X270000D02*
D03*
X220000D02*
D03*
X210000D02*
D03*
X260000D02*
D03*
X250000D02*
D03*
X230000D02*
D03*
X240000D02*
D03*
X200000D02*
D03*
X190000D02*
D03*
X180000D02*
D03*
X170000D02*
D03*
X160000D02*
D03*
X150000D02*
D03*
Y138000D02*
D03*
X160000D02*
D03*
X170000D02*
D03*
X180000D02*
D03*
X190000D02*
D03*
X200000D02*
D03*
X210000D02*
D03*
X220000D02*
D03*
X230000D02*
D03*
X240000D02*
D03*
X250000D02*
D03*
X260000D02*
D03*
X270000D02*
D03*
X280000D02*
D03*
D63*
X175500Y20437D02*
D03*
X272500Y191563D02*
D03*
D64*
X201000Y25842D02*
D03*
Y6157D02*
D03*
X80000Y183079D02*
D03*
Y192921D02*
D03*
X49000Y212500D02*
D03*
Y202658D02*
D03*
D65*
X280000Y121000D02*
D03*
Y111000D02*
D03*
Y101000D02*
D03*
Y91000D02*
D03*
Y81000D02*
D03*
Y71000D02*
D03*
D66*
Y61000D02*
D03*
D67*
X118000Y119500D02*
D03*
D68*
Y129500D02*
D03*
D69*
Y139500D02*
D03*
D70*
X262000Y8000D02*
D03*
Y18000D02*
D03*
D71*
Y28000D02*
D03*
D72*
X86870Y100500D02*
D03*
D73*
Y90500D02*
D03*
Y80500D02*
D03*
Y70500D02*
D03*
X118130D02*
D03*
Y80500D02*
D03*
Y90500D02*
D03*
Y100500D02*
D03*
D74*
X187106Y190000D02*
D03*
X167894D02*
D03*
D75*
X231437Y17000D02*
D03*
X92000Y131000D02*
D03*
D76*
X223563Y17000D02*
D03*
X99874Y131000D02*
D03*
D77*
X62000Y90842D02*
D03*
X16000Y109000D02*
D03*
D78*
X102500Y42500D02*
D03*
X112500D02*
D03*
D79*
X122500D02*
D03*
D80*
X169134Y110000D02*
D03*
X78000Y48866D02*
D03*
D81*
X210866Y110000D02*
D03*
D82*
X78000Y7134D02*
D03*
D83*
X17000Y79000D02*
D03*
D84*
Y69000D02*
D03*
D85*
X146500Y48894D02*
D03*
D86*
Y8106D02*
D03*
M02*
