G04*
G04 #@! TF.GenerationSoftware,Altium Limited,Altium Designer,23.4.1 (23)*
G04*
G04 Layer_Color=255*
%FSLAX25Y25*%
%MOIN*%
G70*
G04*
G04 #@! TF.SameCoordinates,2A0E947D-B6A8-43C5-BC2B-383818F6DAB7*
G04*
G04*
G04 #@! TF.FilePolarity,Positive*
G04*
G01*
G75*
%ADD53O,0.09843X0.19685*%
%ADD54O,0.08858X0.17717*%
%ADD55O,0.17717X0.08858*%
%ADD56C,0.05512*%
%ADD57C,0.05200*%
%ADD58R,0.05200X0.05200*%
%ADD59R,0.07323X0.07323*%
%ADD60C,0.07323*%
%ADD61R,0.05347X0.05347*%
%ADD62C,0.05347*%
%ADD63R,0.05200X0.05200*%
%ADD64C,0.04528*%
%ADD65C,0.07400*%
%ADD66R,0.07400X0.07400*%
%ADD67R,0.07284X0.07284*%
%ADD68C,0.07402*%
%ADD69C,0.07284*%
%ADD70C,0.05976*%
%ADD71R,0.05976X0.05976*%
%ADD72R,0.04449X0.04449*%
%ADD73C,0.04449*%
%ADD74C,0.04055*%
%ADD75R,0.04331X0.04331*%
%ADD76C,0.04331*%
%ADD77R,0.05512X0.05512*%
%ADD78C,0.04795*%
%ADD79R,0.04795X0.04795*%
%ADD80C,0.06496*%
%ADD81R,0.06496X0.06496*%
%ADD82R,0.06496X0.06496*%
%ADD83C,0.05937*%
%ADD84R,0.05937X0.05937*%
%ADD85R,0.06260X0.06260*%
%ADD86C,0.06260*%
D53*
X51122Y26500D02*
D03*
D54*
X27500D02*
D03*
D55*
X39311Y7996D02*
D03*
D56*
X110000Y213000D02*
D03*
X70000D02*
D03*
X136000Y74000D02*
D03*
Y114000D02*
D03*
X237500Y45000D02*
D03*
Y85000D02*
D03*
X252500Y185500D02*
D03*
X212500D02*
D03*
X133000Y159500D02*
D03*
X93000D02*
D03*
X101000Y183000D02*
D03*
X141000D02*
D03*
X261000Y50500D02*
D03*
Y90500D02*
D03*
X20000Y184500D02*
D03*
X60000D02*
D03*
X224000Y122000D02*
D03*
X264000D02*
D03*
X217500Y45000D02*
D03*
Y85000D02*
D03*
X152500Y114000D02*
D03*
Y74000D02*
D03*
X41500Y96000D02*
D03*
Y56000D02*
D03*
X62000Y71157D02*
D03*
Y81000D02*
D03*
X16000Y119000D02*
D03*
X73500Y159500D02*
D03*
Y119500D02*
D03*
X199500Y46000D02*
D03*
Y86000D02*
D03*
X7500Y146500D02*
D03*
Y186500D02*
D03*
X56500Y159500D02*
D03*
Y119500D02*
D03*
X40000D02*
D03*
Y159500D02*
D03*
D57*
X234063Y214500D02*
D03*
X12563Y212500D02*
D03*
X175500Y12563D02*
D03*
X272500Y199437D02*
D03*
X185000Y214500D02*
D03*
X137063Y214000D02*
D03*
X103626Y12000D02*
D03*
D58*
X241937Y214500D02*
D03*
X20437Y212500D02*
D03*
X192874Y214500D02*
D03*
X144937Y214000D02*
D03*
X111500Y12000D02*
D03*
D59*
X176500Y56000D02*
D03*
D60*
Y66000D02*
D03*
Y76000D02*
D03*
D61*
X280000Y169181D02*
D03*
D62*
X270000D02*
D03*
X220000D02*
D03*
X210000D02*
D03*
X260000D02*
D03*
X250000D02*
D03*
X230000D02*
D03*
X240000D02*
D03*
X200000D02*
D03*
X190000D02*
D03*
X180000D02*
D03*
X170000D02*
D03*
X160000D02*
D03*
X150000D02*
D03*
Y138000D02*
D03*
X160000D02*
D03*
X170000D02*
D03*
X180000D02*
D03*
X190000D02*
D03*
X200000D02*
D03*
X210000D02*
D03*
X220000D02*
D03*
X230000D02*
D03*
X240000D02*
D03*
X250000D02*
D03*
X260000D02*
D03*
X270000D02*
D03*
X280000D02*
D03*
D63*
X175500Y20437D02*
D03*
X272500Y191563D02*
D03*
D64*
X201000Y25842D02*
D03*
Y6157D02*
D03*
X80000Y183079D02*
D03*
Y192921D02*
D03*
X49000Y212500D02*
D03*
Y202658D02*
D03*
D65*
X280000Y121000D02*
D03*
Y111000D02*
D03*
Y101000D02*
D03*
Y91000D02*
D03*
Y81000D02*
D03*
Y71000D02*
D03*
D66*
Y61000D02*
D03*
D67*
X118000Y119500D02*
D03*
D68*
Y129500D02*
D03*
D69*
Y139500D02*
D03*
D70*
X262000Y8000D02*
D03*
Y18000D02*
D03*
D71*
Y28000D02*
D03*
D72*
X86870Y100500D02*
D03*
D73*
Y90500D02*
D03*
Y80500D02*
D03*
Y70500D02*
D03*
X118130D02*
D03*
Y80500D02*
D03*
Y90500D02*
D03*
Y100500D02*
D03*
D74*
X187106Y190000D02*
D03*
X167894D02*
D03*
D75*
X231437Y17000D02*
D03*
X92000Y131000D02*
D03*
D76*
X223563Y17000D02*
D03*
X99874Y131000D02*
D03*
D77*
X62000Y90842D02*
D03*
X16000Y109000D02*
D03*
D78*
X102500Y42500D02*
D03*
X112500D02*
D03*
D79*
X122500D02*
D03*
D80*
X169134Y110000D02*
D03*
X78000Y48866D02*
D03*
D81*
X210866Y110000D02*
D03*
D82*
X78000Y7134D02*
D03*
D83*
X17000Y79000D02*
D03*
D84*
Y69000D02*
D03*
D85*
X146500Y48894D02*
D03*
D86*
Y8106D02*
D03*
M02*
