G04*
G04 #@! TF.GenerationSoftware,Altium Limited,Altium Designer,23.4.1 (23)*
G04*
G04 Layer_Color=16711935*
%FSLAX25Y25*%
%MOIN*%
G70*
G04*
G04 #@! TF.SameCoordinates,2A0E947D-B6A8-43C5-BC2B-383818F6DAB7*
G04*
G04*
G04 #@! TF.FilePolarity,Positive*
G04*
G01*
G75*
%ADD11C,0.00787*%
%ADD13C,0.00500*%
%ADD87C,0.00200*%
D11*
X186894Y56000D02*
X186106D01*
X186894D01*
X128345Y119500D02*
X127557D01*
X128345D01*
X262394Y33748D02*
X261606D01*
X262394D01*
X83071Y100500D02*
X82284D01*
X83071D01*
X240689Y17000D02*
X239902D01*
X240689D01*
X62394Y97535D02*
X61606D01*
X62394D01*
X83535Y131000D02*
X82748D01*
X83535D01*
X16394Y100614D02*
X15606D01*
X16394D01*
X127894Y42500D02*
X127106D01*
X127894D01*
X146894Y54878D02*
X146106D01*
X146894D01*
D13*
X199843Y193986D02*
X199762Y194982D01*
X199489Y195944D01*
X199033Y196833D01*
X198412Y197617D01*
X197651Y198265D01*
X196777Y198751D01*
X195826Y199058D01*
X194833Y199173D01*
X160167D02*
X159174Y199058D01*
X158222Y198751D01*
X157349Y198265D01*
X156588Y197617D01*
X155967Y196833D01*
X155511Y195944D01*
X155238Y194982D01*
X155157Y193986D01*
Y186014D02*
X155238Y185018D01*
X155511Y184056D01*
X155967Y183167D01*
X156588Y182383D01*
X157349Y181735D01*
X158222Y181249D01*
X159174Y180942D01*
X160167Y180827D01*
X194833D02*
X195826Y180942D01*
X196777Y181249D01*
X197651Y181735D01*
X198412Y182383D01*
X199033Y183167D01*
X199489Y184056D01*
X199762Y185018D01*
X199843Y186014D01*
X237343Y17000D02*
X237292Y17996D01*
X237141Y18981D01*
X236891Y19947D01*
X236545Y20881D01*
X236106Y21777D01*
X235578Y22623D01*
X234968Y23411D01*
X234281Y24134D01*
X233525Y24783D01*
X232706Y25353D01*
X231835Y25837D01*
X230918Y26230D01*
X229967Y26528D01*
X228990Y26729D01*
X227998Y26830D01*
X227002D01*
X226010Y26729D01*
X225033Y26528D01*
X224082Y26230D01*
X223165Y25837D01*
X222294Y25353D01*
X221475Y24783D01*
X220719Y24134D01*
X220032Y23411D01*
X219422Y22623D01*
X218894Y21777D01*
X218455Y20881D01*
X218109Y19947D01*
X217859Y18981D01*
X217708Y17996D01*
X217657Y17000D01*
X217708Y16004D01*
X217859Y15019D01*
X218109Y14053D01*
X218455Y13118D01*
X218894Y12223D01*
X219422Y11377D01*
X220032Y10589D01*
X220719Y9866D01*
X221475Y9217D01*
X222294Y8647D01*
X223165Y8163D01*
X224082Y7770D01*
X225033Y7472D01*
X226010Y7271D01*
X227002Y7170D01*
X227998D01*
X228991Y7271D01*
X229967Y7472D01*
X230918Y7770D01*
X231835Y8163D01*
X232706Y8647D01*
X233525Y9217D01*
X234281Y9866D01*
X234968Y10589D01*
X235578Y11377D01*
X236106Y12223D01*
X236545Y13119D01*
X236891Y14053D01*
X237141Y15019D01*
X237292Y16004D01*
X237343Y17000D01*
X57304Y73421D02*
X58160Y72888D01*
X59070Y72452D01*
X60021Y72118D01*
X61004Y71889D01*
X62005Y71768D01*
X63014Y71757D01*
X64018Y71856D01*
X65005Y72063D01*
X65964Y72377D01*
X66882Y72793D01*
X67750Y73307D01*
X68557Y73913D01*
X69294Y74602D01*
X69950Y75368D01*
X70520Y76200D01*
X70995Y77090D01*
X71371Y78026D01*
X71643Y78997D01*
X71807Y79993D01*
X71862Y81000D01*
X71807Y82007D01*
X71643Y83003D01*
X71371Y83974D01*
X70995Y84910D01*
X70520Y85800D01*
X69950Y86632D01*
X69294Y87398D01*
X68557Y88087D01*
X67750Y88693D01*
X66882Y89207D01*
X65964Y89623D01*
X65005Y89937D01*
X64018Y90144D01*
X63014Y90243D01*
X62005Y90232D01*
X61004Y90111D01*
X60021Y89882D01*
X59070Y89548D01*
X58160Y89112D01*
X57304Y88579D01*
X105780Y131000D02*
X105729Y131996D01*
X105578Y132981D01*
X105328Y133947D01*
X104982Y134881D01*
X104543Y135777D01*
X104015Y136623D01*
X103405Y137411D01*
X102718Y138134D01*
X101962Y138783D01*
X101143Y139353D01*
X100272Y139837D01*
X99355Y140230D01*
X98404Y140528D01*
X97427Y140729D01*
X96435Y140830D01*
X95438D01*
X94447Y140729D01*
X93470Y140528D01*
X92519Y140230D01*
X91602Y139837D01*
X90731Y139353D01*
X89912Y138783D01*
X89156Y138134D01*
X88469Y137411D01*
X87859Y136623D01*
X87331Y135777D01*
X86892Y134881D01*
X86546Y133947D01*
X86296Y132981D01*
X86145Y131996D01*
X86094Y131000D01*
X86145Y130004D01*
X86296Y129019D01*
X86546Y128053D01*
X86892Y127119D01*
X87331Y126223D01*
X87859Y125377D01*
X88469Y124589D01*
X89156Y123866D01*
X89912Y123217D01*
X90731Y122647D01*
X91602Y122163D01*
X92519Y121770D01*
X93470Y121472D01*
X94447Y121271D01*
X95438Y121170D01*
X96436D01*
X97427Y121271D01*
X98404Y121472D01*
X99355Y121770D01*
X100272Y122163D01*
X101143Y122647D01*
X101962Y123217D01*
X102718Y123866D01*
X103405Y124589D01*
X104015Y125377D01*
X104543Y126223D01*
X104982Y127119D01*
X105328Y128053D01*
X105578Y129019D01*
X105729Y130004D01*
X105780Y131000D01*
X27614Y114000D02*
X27571Y114998D01*
X27442Y115989D01*
X27229Y116966D01*
X26933Y117920D01*
X26555Y118845D01*
X26100Y119735D01*
X25569Y120582D01*
X24968Y121380D01*
X24300Y122124D01*
X23571Y122807D01*
X22786Y123425D01*
X21951Y123974D01*
X21071Y124449D01*
X20154Y124846D01*
X19207Y125163D01*
X18235Y125397D01*
X17247Y125547D01*
X16250Y125611D01*
X15251Y125590D01*
X14257Y125483D01*
X13277Y125290D01*
X12316Y125014D01*
X11383Y124657D01*
X10484Y124221D01*
X9626Y123709D01*
X8815Y123125D01*
X8057Y122473D01*
X7358Y121759D01*
X6723Y120987D01*
X6157Y120164D01*
X5663Y119295D01*
X5246Y118387D01*
X4909Y117446D01*
X4654Y116480D01*
X4482Y115495D01*
X4397Y114500D01*
Y113500D01*
X4482Y112505D01*
X4654Y111520D01*
X4909Y110554D01*
X5246Y109613D01*
X5663Y108705D01*
X6157Y107836D01*
X6723Y107013D01*
X7358Y106241D01*
X8057Y105527D01*
X8815Y104875D01*
X9626Y104291D01*
X10484Y103779D01*
X11383Y103343D01*
X12316Y102986D01*
X13277Y102710D01*
X14257Y102517D01*
X15251Y102410D01*
X16250Y102389D01*
X17247Y102453D01*
X18235Y102603D01*
X19207Y102837D01*
X20154Y103154D01*
X21071Y103551D01*
X21951Y104026D01*
X22786Y104575D01*
X23571Y105193D01*
X24300Y105876D01*
X24968Y106620D01*
X25569Y107418D01*
X26100Y108265D01*
X26555Y109155D01*
X26933Y110080D01*
X27229Y111034D01*
X27442Y112011D01*
X27571Y113002D01*
X27614Y114000D01*
X-2815Y8783D02*
X53878D01*
X-2815D02*
Y44216D01*
X53878D01*
Y8783D02*
Y44216D01*
X165240Y45252D02*
X183744D01*
Y86748D01*
X165240D02*
X183744D01*
X165240Y45252D02*
Y86748D01*
X206906Y7142D02*
Y24858D01*
X195095Y7142D02*
X206906D01*
X195095Y24858D02*
X206906D01*
X195095Y7142D02*
Y24858D01*
X75079Y180126D02*
Y195874D01*
X84921D01*
X75079Y180126D02*
X84921D01*
Y195874D01*
X113295Y114146D02*
Y144854D01*
X125106D01*
Y114146D02*
Y144854D01*
X113295Y114146D02*
X125106D01*
X248811Y27843D02*
X267709D01*
X248811Y8157D02*
Y27843D01*
Y8157D02*
X267709D01*
Y27843D01*
X53921Y199705D02*
Y215453D01*
X44079Y199705D02*
X53921D01*
X44079Y215453D02*
X53921D01*
X44079Y199705D02*
Y215453D01*
X90000Y104378D02*
X115000D01*
X90000Y66622D02*
X115000D01*
X90000D02*
Y104378D01*
X115000Y66622D02*
Y104378D01*
X160158Y199173D02*
X194843D01*
X155157Y186024D02*
Y193976D01*
X160158Y180827D02*
X194843D01*
X199843Y186024D02*
Y193976D01*
X57295Y73427D02*
Y88573D01*
X131260Y32972D02*
Y51988D01*
X93740D02*
X131260D01*
X93740Y32972D02*
Y51988D01*
Y32972D02*
X131260D01*
X179764Y104685D02*
X196988D01*
X200236D01*
X196988Y115315D02*
X200236D01*
X179764D02*
X196988D01*
Y104685D02*
Y115315D01*
X200236Y104685D02*
Y110000D01*
Y115315D01*
X179764Y110000D02*
Y115315D01*
Y104685D02*
Y110000D01*
X200236D02*
X205354D01*
X174646D02*
X179764D01*
X72685Y21012D02*
Y38236D01*
Y17764D02*
Y21012D01*
X83315Y17764D02*
Y21012D01*
Y38236D01*
X72685Y21012D02*
X83315D01*
X72685Y17764D02*
X78000D01*
X83315D01*
X78000Y38236D02*
X83315D01*
X72685D02*
X78000D01*
Y12646D02*
Y17764D01*
Y38236D02*
Y43354D01*
X146500Y37358D02*
X151224D01*
X141776D02*
X146500D01*
X141776Y19642D02*
Y37358D01*
Y19642D02*
X146500D01*
X151224D01*
Y37358D01*
X146500D02*
Y48894D01*
Y8106D02*
Y19642D01*
D87*
X233472Y224736D02*
Y225524D01*
X242528Y224736D02*
Y225524D01*
X227370Y224736D02*
X233472D01*
X242528D02*
X248630D01*
X227370Y208594D02*
Y224736D01*
Y208594D02*
X248630D01*
Y224736D01*
X249614Y207807D02*
Y225524D01*
X242528D02*
X249614D01*
X233472D02*
X242528D01*
X226386D02*
X233472D01*
X226386Y207807D02*
Y225524D01*
Y207807D02*
X249614D01*
X11972Y222736D02*
Y223524D01*
X21028Y222736D02*
Y223524D01*
X5870Y222736D02*
X11972D01*
X21028D02*
X27130D01*
X5870Y206594D02*
Y222736D01*
Y206594D02*
X27130D01*
Y222736D01*
X28114Y205807D02*
Y223524D01*
X21028D02*
X28114D01*
X11972D02*
X21028D01*
X4886D02*
X11972D01*
X4886Y205807D02*
Y223524D01*
Y205807D02*
X28114D01*
X164476Y11972D02*
X165264D01*
X164476Y21028D02*
X165264D01*
Y5870D02*
Y11972D01*
Y21028D02*
Y27130D01*
Y5870D02*
X181405D01*
Y27130D01*
X165264D02*
X181405D01*
X164476Y28114D02*
X182193D01*
X164476Y21028D02*
Y28114D01*
Y11972D02*
Y21028D01*
Y4886D02*
Y11972D01*
Y4886D02*
X182193D01*
Y28114D01*
X265807Y183886D02*
Y207114D01*
X283524D01*
Y200028D02*
Y207114D01*
Y190972D02*
Y200028D01*
Y183886D02*
Y190972D01*
X265807Y183886D02*
X283524D01*
X266595Y184870D02*
X282736D01*
X266595D02*
Y206130D01*
X282736D01*
Y184870D02*
Y190972D01*
Y200028D02*
Y206130D01*
Y190972D02*
X283524D01*
X282736Y200028D02*
X283524D01*
X177323Y207807D02*
X200551D01*
X177323D02*
Y225524D01*
X184409D01*
X193465D01*
X200551D01*
Y207807D02*
Y225524D01*
X199567Y208594D02*
Y224736D01*
X178307Y208594D02*
X199567D01*
X178307D02*
Y224736D01*
X193465D02*
X199567D01*
X178307D02*
X184409D01*
X193465D02*
Y225524D01*
X184409Y224736D02*
Y225524D01*
X129386Y207307D02*
X152614D01*
X129386D02*
Y225024D01*
X136472D01*
X145528D01*
X152614D01*
Y207307D02*
Y225024D01*
X151630Y208095D02*
Y224236D01*
X130370Y208095D02*
X151630D01*
X130370D02*
Y224236D01*
X145528D02*
X151630D01*
X130370D02*
X136472D01*
X145528D02*
Y225024D01*
X136472Y224236D02*
Y225024D01*
X95949Y5307D02*
X119177D01*
X95949D02*
Y23024D01*
X103035D01*
X112091D01*
X119177D01*
Y5307D02*
Y23024D01*
X118193Y6095D02*
Y22236D01*
X96933Y6095D02*
X118193D01*
X96933D02*
Y22236D01*
X112091D02*
X118193D01*
X96933D02*
X103035D01*
X112091D02*
Y23024D01*
X103035Y22236D02*
Y23024D01*
M02*
