M48
;Layer_Color=9474304
;FILE_FORMAT=2:4
INCH,LZ
;TYPE=PLATED
T1F00S00C0.0248
T2F00S00C0.0280
T3F00S00C0.0295
T4F00S00C0.0307
T5F00S00C0.0315
T6F00S00C0.0320
T7F00S00C0.0335
T8F00S00C0.0366
T9F00S00C0.0394
T11F00S00C0.0398
T12F00S00C0.0400
T13F00S00C0.0417
T14F00S00C0.0433
T15F00S00C0.0484
T16F00S00C0.0488
T17F00S00C0.0492
;TYPE=NON_PLATED
T18F00S00C0.0787
%
T01
X016789Y019
X018711
T02
X01025Y00425
X01125
X01225
T03
X022356Y0017
X023144
X009987Y0131
X0092
T04
X008687Y00705
Y00805
Y00905
Y01005
X011813
Y00905
Y00805
Y00705
T05
X0201Y000616
Y002584
X008Y018308
Y019292
X0049Y020266
Y02125
T06
X010363Y0012
X01115
X01755Y001256
Y002044
X02725Y019156
Y019944
X002044Y02125
X001256
X013706Y0214
X014494
X0185Y02145
X019287
X023406
X024194
T07
X01995Y0046
X02175Y0045
X02375
X0261Y00505
Y00905
X02375Y0085
X02175
X0224Y0122
X022Y0138
X021
X023
X024
X025
X026
X027
X028
Y016918
X027
X026
X025
X024
X023
X022
X021
X02125Y01855
X02525
X0264Y0122
X02Y0138
X019
X018
X017
X016
X015
X01525Y0114
X0136
Y0074
X01525
X01995Y0086
X02Y016918
X019
X018
X017
X016
X015
X0141Y0183
X0133Y01595
X0093
X00735
X00565
X006Y01845
X0101Y0183
X00735Y01195
X00565
X004
X00415Y0096
Y0056
X004Y01595
X002Y01845
X00075Y01865
Y01465
X007Y0213
X011
T08
X0062Y007116
Y0081
Y009084
X0016Y0109
Y0119
T09
X0017Y0069
Y0079
T11
X0262Y0008
Y0018
Y0028
T12
X028Y0061
Y0071
Y0081
Y0091
Y0101
Y0111
Y0121
T13
X01465Y000811
Y004889
T14
X0078Y000713
Y004887
X021087Y011
X016913
T15
X0118Y01195
Y01395
T16
X01765Y0056
Y0066
Y0076
T17
X0118Y01295
T18
X0286Y0008
Y02225
M30
